<?xml version="1.0" encoding="iso-8859-1"?>
<svg version="1.1" id="Layer_1" xmlns="http://www.w3.org/2000/svg" xmlns:xlink="http://www.w3.org/1999/xlink"
	 x="0px" y="0px" viewBox="0 0 496.158 496.158" style="enable-background:new 0 0 496.158 496.158;"
	 xml:space="preserve">
<path style="fill:#FABC3D;" d="M496.158,248.085c0-137.021-111.07-248.082-248.076-248.082C111.07,0.002,0,111.062,0,248.085
	c0,137.002,111.07,248.071,248.083,248.071C385.088,496.155,496.158,385.086,496.158,248.085z"/>
<g>
	<path style="fill:#FFFFFF;" d="M146.34,134.473c4.74-2.655,10.83-2.537,15.461,0.303l95.628,58.678
		c4.512,2.769,7.315,7.765,7.307,13.06c-0.009,5.296-2.828,10.282-7.348,13.036l-95.628,58.268
		c-2.394,1.458-5.144,2.23-7.953,2.23c-2.618,0-5.203-0.679-7.479-1.955c-4.811-2.701-7.799-7.8-7.799-13.31v-117
		C138.529,142.283,141.519,137.173,146.34,134.473z"/>
	<path style="fill:#FFFFFF;" d="M241.691,134.473c4.74-2.655,10.83-2.537,15.461,0.303l95.628,58.678
		c4.512,2.769,7.315,7.765,7.307,13.06c-0.009,5.296-2.828,10.282-7.348,13.036l-95.628,58.268
		c-2.394,1.458-5.144,2.23-7.953,2.23c-2.618,0-5.203-0.679-7.479-1.955c-4.811-2.701-7.799-7.8-7.799-13.31v-117
		C233.881,142.283,236.87,137.173,241.691,134.473z"/>
</g>
</svg>
